<svg xmlns="http://www.w3.org/2000/svg" version="1.1" viewBox="-2 0 512 512" style="shape-rendering:geometricPrecision; text-rendering:geometricPrecision; image-rendering:optimizeQuality; fill-rule:evenodd; clip-rule:evenodd" xmlns:xlink="http://www.w3.org/1999/xlink">
<g><path style="opacity:0.987" fill="#000000" d="M 254.5,59.5 C 258.273,60.127 261.106,62.127 263,65.5C 354.256,183.877 352.756,301.044 258.5,417C 254.418,418.293 251.251,417.126 249,413.5C 218.739,375.976 197.739,333.643 186,286.5C 175.864,237.582 180.864,190.249 201,144.5C 212.507,118.04 226.84,93.3733 244,70.5C 247.065,66.2718 250.565,62.6052 254.5,59.5 Z"/></g>
<g><path style="opacity:0.966" fill="#000000" d="M 118.5,74.5 C 121.32,74.2475 123.986,74.7475 126.5,76C 146.428,88.0935 164.761,102.26 181.5,118.5C 172.422,137.753 164.756,157.419 158.5,177.5C 139.961,166.564 120.628,157.231 100.5,149.5C 102.37,123.546 108.37,98.5461 118.5,74.5 Z"/></g>
<g><path style="opacity:0.966" fill="#000000" d="M 386.5,74.5 C 388.527,74.3379 390.527,74.5045 392.5,75C 399.096,89.8656 403.929,105.366 407,121.5C 408.629,129.978 410.129,138.478 411.5,147C 411.167,147.833 410.833,148.667 410.5,149.5C 390.372,157.231 371.039,166.564 352.5,177.5C 346.244,157.419 338.578,137.753 329.5,118.5C 346.905,101.646 365.905,86.9798 386.5,74.5 Z"/></g>
<g><path style="opacity:0.984" fill="#000000" d="M -0.5,172.5 C -0.5,168.167 -0.5,163.833 -0.5,159.5C 1.50344,157.985 3.83678,157.319 6.5,157.5C 59.5927,162.696 108.426,179.696 153,208.5C 148.371,258.725 156.704,306.725 178,352.5C 187.316,372.476 198.149,391.476 210.5,409.5C 106.981,389.158 40.4806,328.158 11,226.5C 6.05386,208.594 2.22053,190.594 -0.5,172.5 Z"/></g>
<g><path style="opacity:0.983" fill="#000000" d="M 511.5,159.5 C 511.5,163.833 511.5,168.167 511.5,172.5C 504.916,223.086 487.75,269.753 460,312.5C 429.578,353.563 390.078,382.397 341.5,399C 328.506,403.443 315.339,407.276 302,410.5C 301.5,410.167 301,409.833 300.5,409.5C 331.88,365.386 351.047,316.386 358,262.5C 358.642,254.509 359.142,246.509 359.5,238.5C 358.818,228.482 358.318,218.482 358,208.5C 402.574,179.696 451.407,162.696 504.5,157.5C 507.163,157.319 509.497,157.985 511.5,159.5 Z"/></g>
<g><path style="opacity:0.964" fill="#000000" d="M -0.5,358.5 C -0.5,356.5 -0.5,354.5 -0.5,352.5C 8.60661,344.775 18.2733,337.775 28.5,331.5C 58.0277,369.854 95.0277,398.687 139.5,418C 157.417,425.528 175.75,431.861 194.5,437C 139.703,461.477 90.0364,453.81 45.5,414C 27.6431,397.366 12.3098,378.866 -0.5,358.5 Z"/></g>
<g><path style="opacity:0.964" fill="#000000" d="M 511.5,352.5 C 511.5,354.833 511.5,357.167 511.5,359.5C 493.16,388.342 469.827,412.509 441.5,432C 408.834,451.737 374.167,456.071 337.5,445C 330.266,442.922 323.266,440.256 316.5,437C 365.671,424.917 409.337,402.584 447.5,370C 459.749,357.59 471.416,344.756 482.5,331.5C 492.727,337.775 502.393,344.775 511.5,352.5 Z"/></g>
</svg>