<svg version="1.1" xmlns="http://www.w3.org/2000/svg" viewBox="-2 0 512 512">
      <path
        d="M0 0 C4.62671674 4.38320533 5.8047086 9.71222493 6.171875 15.89355469 C6.26454977 20.29424345 6.31558981 24.69204867 6.30273438 29.09375 C6.49150133 39.46984317 9.12640023 48.07484206 16 56 C24.08273089 62.48411313 32.55444249 66.21990647 43 66 C53.12760118 64.56781397 61.28013404 60.80957395 68 53 C72.48316856 46.71835103 75.21114991 40.93732097 75.30859375 33.078125 C75.33373047 31.96953125 75.35886719 30.8609375 75.38476562 29.71875 C75.41968353 27.42192783 75.45098402 25.12504758 75.47851562 22.828125 C75.85764802 6.84908172 75.85764802 6.84908172 80.3449707 1.35253906 C85.96718252 -3.61747106 91.39664804 -4.38705446 98.61328125 -4.25390625 C119.12076352 -2.71643641 135.60916657 6.55717472 149 22 C160.75302973 37.50777836 163.55821287 55.20235664 165.92282295 73.99588203 C166.19989808 76.19634633 166.48391434 78.39582656 166.76951599 80.59519958 C167.47560927 86.04255993 168.17113416 91.49125579 168.86547852 96.94012451 C169.45737272 101.58294359 170.05405448 106.22509553 170.65742302 110.86643791 C170.93577886 113.02281187 171.20709167 115.17999591 171.47816467 117.33729553 C171.64987426 118.66314327 171.82192919 119.98894635 171.99438477 121.31469727 C172.21397606 123.0388662 172.21397606 123.0388662 172.43800354 124.79786682 C173.53257389 131.03448977 175.1042446 134.60577084 179.63330078 139.08740234 C180.10176422 139.55644989 180.57022766 140.02549744 181.05288696 140.50875854 C182.5910657 142.04416874 184.14288151 143.56495069 185.6953125 145.0859375 C186.7694981 146.15265634 187.84279919 147.22026656 188.91525269 148.28872681 C191.73084249 151.08909462 194.55823834 153.87723806 197.38830566 156.66296387 C200.27784952 159.51148095 203.15600608 162.37145337 206.03515625 165.23046875 C211.67905284 170.83155511 217.33547961 176.41977222 223 182 C223.53471924 181.58862793 224.06943848 181.17725586 224.62036133 180.75341797 C225.3295874 180.21346191 226.03881348 179.67350586 226.76953125 179.1171875 C227.81911011 178.31450439 227.81911011 178.31450439 228.88989258 177.49560547 C236.00942343 172.44941248 243.47338113 172.24580275 252 173 C261.67458787 174.77515374 269.4628691 181.03113209 275 189 C280.29701964 197.61400319 281.02865475 207.47883047 278.9375 217.25 C276.26380914 226.39113225 270.88301727 233.63787694 263 239 C257.87898763 241.60806977 252.74119252 243.39566395 247 244 C247.34933594 244.67546875 247.69867188 245.3509375 248.05859375 246.046875 C248.51363281 246.93890625 248.96867187 247.8309375 249.4375 248.75 C249.88996094 249.63171875 250.34242188 250.5134375 250.80859375 251.421875 C254.28974545 258.95485901 254.17355597 268.92353219 252.31640625 276.95703125 C247.63094728 289.30253516 240.06966462 297.30783249 228.33203125 303.01953125 C224.09481568 304.80100714 220.48391654 305.12668996 215.88504696 305.13422108 C214.62287725 305.13867892 213.36070755 305.14313676 212.06029028 305.14772969 C210.65688764 305.1476404 209.25348501 305.14745055 207.8500824 305.14717102 C206.36129109 305.15047055 204.87250067 305.15419631 203.3837114 305.1583125 C199.28661447 305.16833055 195.18953219 305.17204898 191.09242475 305.17470181 C186.67574082 305.17860546 182.25906849 305.1881838 177.84239197 305.19691467 C167.1727995 305.21667785 156.50320609 305.22674533 145.8335999 305.23564246 C140.80870873 305.2400258 135.78381863 305.24539251 130.7589283 305.25063133 C114.05415154 305.26764383 97.34937543 305.28213775 80.64459133 305.28938007 C76.30952898 305.29128996 71.97446663 305.29321029 67.6394043 305.29516602 C66.02322161 305.29589163 66.02322161 305.29589163 64.37438876 305.2966319 C46.92242002 305.30493124 29.47051983 305.33026646 12.01858103 305.36274669 C-5.90020674 305.3958238 -23.81895967 305.41382945 -41.73777813 305.41702431 C-51.79799745 305.41918886 -61.85811679 305.42792934 -71.91830635 305.45348549 C-80.48657154 305.4752014 -89.05471247 305.48323852 -97.62300206 305.47351871 C-101.99298977 305.46897654 -106.36272115 305.47085535 -110.73267365 305.49028015 C-114.73816769 305.50793074 -118.74321878 305.50689895 -122.74871766 305.49138286 C-124.19293501 305.48900964 -125.63718319 305.49331548 -127.08135349 305.50521151 C-140.158562 305.60620548 -150.37231025 303.21399995 -160 294 C-168.47040084 284.73549908 -171.47860271 274.47912963 -171.29296875 262.171875 C-170.97724702 255.12663271 -168.15127308 249.18898677 -165 243 C-166.27875 242.938125 -167.5575 242.87625 -168.875 242.8125 C-177.47239855 241.81374412 -184.42079309 237.58970283 -190.2421875 231.28515625 C-196.97964777 222.5264579 -198.84878189 212.75611039 -197.66015625 201.89453125 C-195.74871516 192.23738117 -190.61117904 184.22287862 -182.5625 178.5 C-174.34918372 173.65049926 -166.54780462 171.87965787 -157 173 C-150.41173692 174.72351186 -146.11511287 177.67058177 -141 182 C-104.71670222 153.3236311 -104.71670222 153.3236311 -86.41381836 113.33230591 C-86.03606037 107.23349887 -85.90395984 101.17887873 -86.01855469 95.06982422 C-86.10012395 87.47382343 -84.88435895 80.04679292 -83.72351074 72.55874634 C-83.39031533 70.35145802 -83.09463034 68.14291875 -82.81347656 65.9284668 C-79.83219052 42.90955883 -72.24621744 24.11152388 -53.77734375 9.29296875 C-40.2187399 -0.57054306 -15.33079849 -11.29442884 0 0 Z M-25.171875 15.01220703 C-26.43515625 15.33817871 -27.6984375 15.66415039 -29 16 C-28.46734186 29.62487433 -26.93418132 43.09193153 -25.30152702 56.6235733 C-24.83003596 60.53447825 -24.36521167 64.44614502 -23.90248108 68.35809326 C-22.75328768 78.0632653 -21.59499083 87.7673475 -20.43157959 97.4708252 C-19.52391933 105.04130925 -18.6195714 112.61215363 -17.72579104 120.18429065 C-17.34230601 123.43061121 -16.95493683 126.67639468 -16.56217766 129.92160797 C-16.12431009 133.53972727 -15.69585111 137.1588534 -15.26928711 140.77832031 C-15.07527817 142.35128372 -15.07527817 142.35128372 -14.87734985 143.95602417 C-12.43722081 164.99074539 -16.96804542 183.65955841 -22.1875 203.875 C-22.88327827 206.58243787 -23.57719658 209.29031168 -24.266922 211.9992981 C-24.69163888 213.66633201 -25.11993012 215.33246056 -25.55229187 216.99752808 C-26.33818388 220.07359212 -27 222.81119078 -27 226 C17.88 226 62.76 226 109 226 C107.72338164 218.97859901 106.38960275 212.1351999 104.65234375 205.23828125 C104.20763238 203.44206965 103.76297243 201.64584532 103.31835938 199.84960938 C102.62635304 197.07149791 101.93281632 194.29377671 101.23803711 191.51635742 C100.55974766 188.79961585 99.88706881 186.08152868 99.21484375 183.36328125 C99.00754135 182.54225418 98.80023895 181.72122711 98.58665466 180.87532043 C95.18812269 167.10509409 95.66335941 153.82166892 97.37695312 139.80932617 C97.52325668 138.56206757 97.66956024 137.31480896 97.82029724 136.02975464 C98.13614664 133.345959 98.45464122 130.66264894 98.77793884 127.97975731 C99.28988426 123.73061184 99.79071565 119.48019868 100.29016113 115.22956848 C101.17114419 107.74362428 102.0612192 100.25878305 102.95343018 92.77416992 C104.29810965 81.49343389 105.63588462 70.21188351 106.96450567 58.92924482 C107.46169028 54.71015283 107.96376348 50.4916808 108.46982574 46.2736448 C108.85780974 43.0307538 109.23989659 39.78716628 109.62304688 36.54370117 C109.83343849 34.80811195 109.83343849 34.80811195 110.04808044 33.03746033 C110.71867012 27.31177756 111.15426459 21.76481835 111 16 C109.865625 15.67 108.73125 15.34 107.5625 15 C106.60537109 14.7215625 106.60537109 14.7215625 105.62890625 14.4375 C101.75679138 13.79310644 97.91610555 13.92386672 94 14 C93.98541748 14.69971924 93.97083496 15.39943848 93.95581055 16.12036133 C93.88043067 19.35157443 93.78407319 22.58185352 93.6875 25.8125 C93.66494141 26.91271484 93.64238281 28.01292969 93.61914062 29.14648438 C93.15338628 43.50018658 89.0612393 57.54659771 78.96484375 68.1953125 C65.94001743 80.15847306 51.51388209 83.88532096 34.2578125 83.17919922 C22.23818418 82.2252192 10.26002346 75.68962279 2 67 C-6.15341788 57.33212437 -10.86282028 45.67857779 -11.31640625 33.04296875 C-11.35830078 31.93115234 -11.40019531 30.81933594 -11.44335938 29.67382812 C-11.48267578 28.52333984 -11.52199219 27.37285156 -11.5625 26.1875 C-11.60568359 25.01767578 -11.64886719 23.84785156 -11.69335938 22.64257812 C-11.79918279 19.76182969 -11.90126825 16.88099877 -12 14 C-13.33282775 13.94446551 -14.66638865 13.90653811 -16 13.875 C-16.7425 13.85179687 -17.485 13.82859375 -18.25 13.8046875 C-20.71803628 13.97997417 -22.78765294 14.39699259 -25.171875 15.01220703 Z M-47 27 C-55.86273292 35.70159232 -61.61484112 45.58187357 -63.55297852 57.88012695 C-63.73654954 58.98125431 -63.73654954 58.98125431 -63.92382908 60.10462666 C-65.120507 67.42596869 -66.10719798 74.77524758 -67.04688835 82.13332176 C-67.3495424 84.49360484 -67.6591933 86.8528786 -67.97084045 89.21199036 C-68.85482966 95.90403843 -69.73570982 102.5963968 -70.59057617 109.29223633 C-71.1186578 113.42448717 -71.66204747 117.55447707 -72.21548653 121.68340492 C-72.42167963 123.24349636 -72.62222187 124.80434617 -72.81681633 126.36592674 C-73.08857647 128.54195605 -73.37982788 130.71456525 -73.67553711 132.88745117 C-73.83525497 134.11968918 -73.99497284 135.35192719 -74.15953064 136.62150574 C-75.78748985 143.16552877 -80.14668011 147.43893516 -84.82250977 152.06542969 C-85.39373566 152.63855392 -85.96496155 153.21167816 -86.55349731 153.8021698 C-88.42796156 155.68031505 -90.30948641 157.55120278 -92.19140625 159.421875 C-93.50166203 160.73093763 -94.81154722 162.04037129 -96.12107849 163.35015869 C-98.85912864 166.08664874 -101.6004936 168.81975814 -104.34448242 171.55029297 C-107.86247707 175.05125651 -111.37381106 178.55880876 -114.88292027 182.06867599 C-117.58404729 184.76953128 -120.28777114 187.46777399 -122.99238396 190.16513824 C-124.28836794 191.45794013 -125.58374722 192.7513485 -126.87851143 194.04537201 C-128.68546824 195.85016281 -130.49567816 197.65162388 -132.30688477 199.45214844 C-132.84150833 199.98722519 -133.3761319 200.52230194 -133.92695618 201.07359314 C-139.79433374 206.89039398 -139.79433374 206.89039398 -144.4375 207.3125 C-148.27273021 206.9760763 -149.29322418 206.59375804 -152 204 C-152.96070431 201.48229214 -153.49983981 199.00070819 -154.09375 196.375 C-155.21207859 193.44420782 -156.27997057 192.51872379 -159 191 C-163.47782059 190.08126047 -167.74491903 190.52984515 -171.8125 192.625 C-176.06837496 195.79604409 -178.32775456 198.98326368 -180 204 C-180.83374395 210.0386883 -180.00927027 214.26873956 -176.5 219.2734375 C-170.25782514 226.45844086 -161.27425365 227.17198486 -152.34804535 227.901968 C-138.95125306 228.73440494 -129.31572845 227.10982261 -118.9200058 218.23988533 C-111.43627499 211.45394411 -104.61215271 204.01412095 -97.862854 196.50964355 C-94.33118973 192.62814895 -90.68483573 188.85757663 -87.05078125 185.07226562 C-63.93025347 160.81983169 -52.99814338 141.95188139 -45.9375 109.0625 C-45.7846693 108.35471909 -45.63183861 107.64693817 -45.47437668 106.91770935 C-40.35201821 83.03241444 -33.82151704 49.4059491 -47 27 Z M128 27 C127.27184012 31.81824939 126.57273099 36.63771993 125.92016602 41.46679688 C125.35041198 45.64157499 124.69549691 49.78677064 123.96582031 53.9362793 C121.01952501 72.27920475 123.53265172 88.06839345 127.5871582 105.8807373 C128.2275337 108.73578584 128.82992249 111.59826769 129.43106937 114.46179199 C134.73115218 140.49994269 134.73115218 140.49994269 148.93823242 162.39208984 C151.56399013 165.29892644 154.18760942 168.20734831 156.79580688 171.12994385 C162.95215773 178.01777137 169.19968875 184.80852938 175.56072712 191.50809669 C178.76044971 194.88373076 181.91771456 198.28403759 184.99829102 201.76904297 C201.29453042 220.60818833 201.29453042 220.60818833 224.13009548 228.06306267 C235.00255757 228.33908088 246.65544608 228.09481613 256 222 C260.92029128 216.82074602 262.47190583 212.57410395 262.31640625 205.53515625 C261.66968765 200.35342329 259.24064112 197.12248482 255.375 193.625 C250.70474053 190.42955931 246.570938 190.25310768 241 191 C236.33081623 194.0796744 235.11849714 197.81489741 233.7734375 203.01171875 C233 205 233 205 230 207 C226.9375 207.6875 226.9375 207.6875 223 207 C220.87512207 205.40534973 220.87512207 205.40534973 218.54882812 203.24145508 C217.66646484 202.42109772 216.78410156 201.60074036 215.875 200.75552368 C210.61534441 195.71444349 205.43433514 190.5989877 200.28125 185.44921875 C199.08971041 184.26090077 197.89809936 183.07265443 196.7064209 181.88447571 C194.23057732 179.41456977 191.75675757 176.94265736 189.28417969 174.46948242 C186.11738307 171.30258335 182.94370972 168.14267103 179.76831818 164.98439312 C177.31482573 162.542006 174.8658783 160.09510085 172.41819763 157.64689064 C171.24922523 156.47909636 170.07863534 155.31291884 168.90638733 154.1484127 C167.2746026 152.52641756 165.64926572 150.8982192 164.02539062 149.26831055 C163.1006897 148.34503464 162.17598877 147.42175873 161.2232666 146.47050476 C157.35583725 142.17299828 156.66092905 138.82740378 155.90258789 133.11450195 C155.80957901 132.42921417 155.71657013 131.74392639 155.6207428 131.03787231 C155.31480337 128.77217057 155.01885456 126.50527518 154.72265625 124.23828125 C154.50922292 122.64794855 154.29505351 121.05771449 154.08018494 119.46757507 C153.51469683 115.27125053 152.95717015 111.07391035 152.4019165 106.8762207 C151.51872998 100.20523224 150.62580609 93.53555792 149.72857475 86.86644554 C149.4200995 84.56254415 149.11638478 82.25805436 148.81324768 79.95344543 C147.83423284 72.57705366 146.77110771 65.21596422 145.54858398 57.87573242 C145.44155435 57.19515683 145.33452471 56.51458124 145.22425175 55.81338215 C143.28937677 44.61039326 137.3278815 34.67790051 129 27 C128.67 27 128.34 27 128 27 Z M-34 133 C-34.29132813 134.16015625 -34.58265625 135.3203125 -34.8828125 136.515625 C-38.05373917 148.77434856 -41.59214486 159.32847384 -49.97387695 169.10839844 C-50.45463086 169.67217571 -50.93538477 170.23595299 -51.43070698 170.81681442 C-56.60594346 176.81183295 -62.15850515 182.39379035 -67.79296875 187.953125 C-68.87635808 189.03021975 -69.95921776 190.10784747 -71.0415802 191.18597412 C-73.8466892 193.97798373 -76.6573729 196.76430258 -79.46984863 199.54888916 C-84.00953368 204.04485824 -88.54191448 208.54816885 -93.07140541 213.05440521 C-94.64901018 214.62178925 -96.2299719 216.18572762 -97.81132507 217.74932861 C-98.76649871 218.69768305 -99.72156758 219.64614301 -100.67651367 220.59472656 C-101.51381516 221.42377502 -102.35111664 222.25282349 -103.21379089 223.10699463 C-105.1143821 224.68743871 -105.1143821 224.68743871 -105 226 C-85.2 226 -65.4 226 -45 226 C-41.535 212.4803125 -41.535 212.4803125 -38 198.6875 C-36.90365234 194.48326294 -36.90365234 194.48326294 -35.78515625 190.1940918 C-32.31642974 176.56212974 -29.85789513 164.06939469 -31 150 C-31.07089844 148.99493408 -31.14179688 147.98986816 -31.21484375 146.9543457 C-31.41125104 144.72387393 -31.67577244 142.52732475 -32 140.3125 C-32.09539062 139.58740234 -32.19078125 138.86230469 -32.2890625 138.11523438 C-32.51509739 136.40867094 -32.75563138 134.70403477 -33 133 C-33.33 133 -33.66 133 -34 133 Z M115 133 C114.65065808 135.43603609 114.32097301 137.87267136 114 140.3125 C113.90460938 140.96412109 113.80921875 141.61574219 113.7109375 142.28710938 C113.38249495 144.85599935 113.18225627 147.41631033 113 150 C112.89816406 151.25449951 112.79632813 152.50899902 112.69140625 153.80151367 C111.84788634 169.33935343 116.10973845 183.76925607 120 198.6875 C122.31 207.700625 124.62 216.71375 127 226 C146.8 226 166.6 226 187 226 C183.40924813 221.81078948 180.03546395 217.91439354 176.1472168 214.08129883 C175.23574387 213.1795845 174.32427094 212.27787018 173.38517761 211.34883118 C172.90711355 210.87813013 172.42904949 210.40742908 171.93649864 209.92246437 C170.41388851 208.42221998 168.89556574 206.91775407 167.37837219 205.41203308 C163.06850677 201.13542322 158.75458596 196.86297651 154.42993164 192.60131836 C151.77088081 189.98039872 149.11960795 187.35181029 146.47281837 184.71851158 C145.47551466 183.72914081 144.47546915 182.74252432 143.47238731 181.75901222 C128.62656283 167.19773984 120.8961878 153.02239927 116 133 C115.67 133 115.34 133 115 133 Z M-148.3125 251.1875 C-152.0004436 255.94646284 -154.07158852 260.65442988 -153.94140625 266.73828125 C-153.04942962 273.3867256 -150.84554979 278.32001569 -146 283 C-140.61467467 287.00119204 -135.75122566 288.12611319 -129.16607666 288.12025452 C-127.97418228 288.12162918 -126.7822879 288.12300385 -125.55427551 288.12442017 C-123.59816597 288.11902725 -123.59816597 288.11902725 -121.60253906 288.11352539 C-120.21280418 288.11324326 -118.82306915 288.11340176 -117.43333435 288.1139679 C-113.66301724 288.11425486 -109.89273194 288.10837442 -106.12242222 288.10139394 C-102.18128686 288.09514362 -98.24015078 288.09455527 -94.29901123 288.09336853 C-86.8369931 288.09026017 -79.37498961 288.08205344 -71.91297793 288.07201904 C-63.417281 288.06084254 -54.92158337 288.05534358 -46.42588091 288.05032361 C-28.9505788 288.03987043 -11.47529095 288.02228056 6 288 C6 287.34 6 286.68 6 286 C4.94949463 285.75878418 3.89898926 285.51756836 2.81665039 285.26904297 C1.32697748 284.92679348 -0.16268646 284.58450497 -1.65234375 284.2421875 C-2.4509935 284.05869247 -3.24964325 283.87519745 -4.07249451 283.68614197 C-8.48702961 282.67109166 -12.90069858 281.65245507 -17.31298828 280.62768555 C-19.10579013 280.21140793 -20.89859611 279.79514814 -22.69140625 279.37890625 C-24.02473999 279.06922157 -24.02473999 279.06922157 -25.38500977 278.75328064 C-30.52988315 277.5615533 -35.68026342 276.40362987 -40.83984375 275.27734375 C-41.96334229 275.02549316 -43.08684082 274.77364258 -44.24438477 274.51416016 C-46.25851812 274.06273543 -48.27581002 273.62506648 -50.29663086 273.20458984 C-57.16172244 271.63721734 -63.85786837 268.94711742 -68.37036133 263.27856445 C-72.0715256 257.10995733 -73.17549265 250.99038841 -74 244 C-82.07595493 243.90702026 -90.15168348 243.8360944 -98.2280426 243.79275131 C-101.97888189 243.77194103 -105.72935302 243.74374533 -109.47998047 243.69824219 C-113.10452862 243.6545475 -116.72872427 243.63081364 -120.35351562 243.62049103 C-121.73133894 243.61314168 -123.10914455 243.59879054 -124.48681641 243.57707977 C-133.65337678 243.43846462 -141.96725249 243.60689457 -148.3125 251.1875 Z M-56 244 C-56.50224667 249.66512139 -56.50224667 249.66512139 -54.40332031 252.74902344 C-51.48150406 255.48562907 -49.43424512 256.10839175 -45.546875 257.015625 C-44.89990662 257.17178284 -44.25293823 257.32794067 -43.58636475 257.48883057 C-41.3949764 258.01186083 -39.19808543 258.50592532 -37 259 C-35.35843086 259.38351323 -33.71716401 259.76832222 -32.07617188 260.15429688 C-27.70370372 261.17530775 -23.32520858 262.16707561 -18.94335938 263.14697266 C-16.21117035 263.75869373 -13.48056026 264.37714731 -10.75 264.99609375 C-9.00529781 265.38841895 -7.26050936 265.7803608 -5.515625 266.171875 C-4.7032135 266.3561908 -3.890802 266.54050659 -3.05377197 266.73040771 C0.02342212 267.41473218 2.83705526 268 6 268 C6 260.08 6 252.16 6 244 C-14.46 244 -34.92 244 -56 244 Z M23 244 C23 258.52 23 273.04 23 288 C48.15629518 288.06773276 73.31251648 288.12299104 98.4688797 288.15543652 C110.14953375 288.17090224 121.8301271 288.19198621 133.51074219 288.22631836 C143.69212812 288.25622963 153.87347009 288.27557714 164.05489874 288.28226548 C169.44537136 288.28617479 174.83571822 288.29535624 180.22615051 288.31719017 C185.30189994 288.33758252 190.37747201 288.3438282 195.45325851 288.33932304 C197.31402424 288.34014701 199.17479603 288.34609622 201.03552628 288.35761642 C203.58155809 288.37260364 206.12692555 288.36893108 208.67297363 288.36076355 C209.77028549 288.37387134 209.77028549 288.37387134 210.88976526 288.38724393 C217.5169721 288.33001556 222.76015104 286.50759065 228.25 282.8125 C232.85894659 278.09880463 235.58352502 272.70047981 236.08984375 266.06640625 C235.7829669 259.00823866 232.62469857 253.95143692 228.109375 248.7265625 C222.78070844 244.36495024 217.42743085 243.56023646 210.71730042 243.63923645 C209.91094318 243.63667318 209.10458594 243.6341099 208.27379364 243.63146895 C205.58670034 243.62654919 202.90017582 243.64299384 200.21313477 243.65942383 C198.28109246 243.66027049 196.34904919 243.65979419 194.41700745 243.65809631 C189.18196684 243.65723647 183.94713294 243.67486055 178.71214032 243.69581819 C173.23754251 243.71458676 167.76293984 243.71633557 162.28831482 243.71989441 C151.92579027 243.72921432 141.56336079 243.75382745 131.20087808 243.78394288 C119.40167915 243.81748849 107.60247565 243.83397331 95.8032409 243.84902918 C71.53542909 243.88037701 47.26774761 243.9353885 23 244 Z "
        fill="#000000" transform="translate(215,207)" />
      <path
        d="M0 0 C8.38359432 4.84014557 12.99948897 11.43404562 16.75390625 20.3203125 C17.70476143 24.08178372 17.36271531 27.0593975 16.98828125 30.91015625 C16.86437078 33.64877636 17.06915344 35.71314096 17.55078125 38.47265625 C19.97553514 41.04244215 22.31443112 42.29183806 25.46484375 43.87109375 C30.57471335 46.52305139 34.42011674 50.51912144 38.55078125 54.47265625 C39.50791016 55.33503906 39.50791016 55.33503906 40.484375 56.21484375 C56.0345987 70.69144399 61.80652992 91.88971866 62.67578125 112.42578125 C62.79675058 118.0810974 62.86965252 122.78276558 58.98828125 127.28515625 C54.4250534 129.50826725 49.28006339 129.04908363 44.55078125 127.47265625 C44.5971875 128.51421875 44.64359375 129.55578125 44.69140625 130.62890625 C45.26426278 149.2917379 40.90780151 165.09651504 28.55078125 179.47265625 C27.80248047 180.38144531 27.80248047 180.38144531 27.0390625 181.30859375 C17.15425099 192.31384989 0.92490584 198.59440106 -13.53515625 199.7109375 C-30.51378527 200.09406571 -45.81463064 195.32430382 -58.82421875 184.09765625 C-71.31654443 172.13174948 -79.12880886 157.14826484 -79.6953125 139.6640625 C-79.73674003 135.59370291 -79.63038361 131.53880091 -79.44921875 127.47265625 C-80.34125 127.5190625 -81.23328125 127.56546875 -82.15234375 127.61328125 C-83.3228125 127.649375 -84.49328125 127.68546875 -85.69921875 127.72265625 C-86.859375 127.7690625 -88.01953125 127.81546875 -89.21484375 127.86328125 C-92.44921875 127.47265625 -92.44921875 127.47265625 -94.80859375 125.70703125 C-100.29855901 118.23022142 -97.36697767 106.08426448 -96.12890625 97.48828125 C-93.30819607 79.86093513 -85.06702808 65.75516715 -72.44921875 53.47265625 C-71.17498047 52.2196875 -71.17498047 52.2196875 -69.875 50.94140625 C-65.69381205 47.00308165 -62.05524952 44.23141711 -56.82421875 41.84765625 C-54.24080564 40.57162755 -54.24080564 40.57162755 -52.44921875 38.47265625 C-51.92928094 34.67484966 -52.14725067 31.19227231 -52.40625 27.37109375 C-52.49403589 19.40651915 -48.69967809 11.75947891 -43.25 6 C-30.84502246 -4.52135839 -14.71087736 -7.1464208 0 0 Z M-30.19921875 18.66015625 C-33.88997013 23.27359547 -35.44921875 27.57457856 -35.44921875 33.47265625 C-34.33546875 33.31023438 -33.22171875 33.1478125 -32.07421875 32.98046875 C-27.19102643 32.372219 -22.36456723 32.32531376 -17.44921875 32.34765625 C-16.5984375 32.34378906 -15.74765625 32.33992188 -14.87109375 32.3359375 C-9.64128845 32.34395867 -4.62468598 32.71790061 0.55078125 33.47265625 C0.03196152 26.07947512 -1.37664442 21.25260445 -7.07421875 16.09765625 C-15.51486798 12.03363995 -22.80915643 12.78169759 -30.19921875 18.66015625 Z M-61.19921875 66.59765625 C-72.8810108 78.92000833 -78.85013037 92.57836401 -79.44921875 109.47265625 C-52.61839696 109.07165212 -25.2142269 101.8733146 -1.59375 89.13671875 C-0.55605469 88.58757812 0.48164063 88.0384375 1.55078125 87.47265625 C2.75154297 86.83457031 2.75154297 86.83457031 3.9765625 86.18359375 C7.67642217 85.16178122 10.93953531 85.27853519 14.55078125 86.47265625 C16.77107896 88.36860768 18.33485044 89.92838036 20.11328125 92.16015625 C21.05855856 93.26138567 22.00645958 94.36036862 22.95703125 95.45703125 C23.81296875 96.4521875 24.66890625 97.44734375 25.55078125 98.47265625 C30.46162391 103.50425734 36.05556295 106.78907428 42.55078125 109.47265625 C43.21078125 109.47265625 43.87078125 109.47265625 44.55078125 109.47265625 C44.21448835 92.78029952 37.80808107 78.8862051 26.48828125 66.78515625 C1.76577611 43.11107472 -36.27278201 42.94508437 -61.19921875 66.59765625 Z M6.55078125 104.47265625 C5.50664062 104.96894531 4.4625 105.46523437 3.38671875 105.9765625 C-14.24088511 114.18055341 -32.40657413 119.67557581 -51.44921875 123.47265625 C-52.55007812 123.69824219 -53.6509375 123.92382812 -54.78515625 124.15625 C-57.00414038 124.60688403 -59.22619477 125.04239354 -61.44921875 125.47265625 C-62.04831115 142.46358239 -60.25398341 153.63270533 -50.19921875 167.59765625 C-42.56118998 175.58286815 -31.19572368 181.46256338 -20.0546875 181.76489258 C-6.03275861 181.89984389 5.33774665 177.24164586 15.55078125 167.47265625 C23.78310606 157.1205078 26.81815749 146.20963994 27.23828125 133.22265625 C27.31755859 132.10246094 27.39683594 130.98226562 27.47851562 129.828125 C27.69136173 123.39858531 27.69136173 123.39858531 24.38134766 118.15039062 C20.891735 115.66623808 17.61555137 113.82757962 13.55078125 112.47265625 C13.26203125 111.87453125 12.97328125 111.27640625 12.67578125 110.66015625 C11.19732894 107.78538787 9.0907785 106.42053195 6.55078125 104.47265625 Z "
        fill="#000000" transform="translate(273.44921875,3.52734375)" />
</svg>